{"title":"The After S01E01 Pilot WEBRip x264 AAC [GWC].mp4","uid":9589344,"size":182114930,"categoryP":"video","categoryS":"tv_shows","magnet":"?xt=urn:btih:214797803697577b533347c518b18070dc10306e&amp;dn=The+After+S01E01+Pilot+WEBRip+x264+AAC+%5BGWC%5D.mp4&amp;tr=udp%3A%2F%2Ftracker.openbittorrent.com%3A80&amp;tr=udp%3A%2F%2Fopen.demonii.com%3A1337&amp;tr=udp%3A%2F%2Ftracker.coppersurfer.tk%3A6969&amp;tr=udp%3A%2F%2Fexodus.desync.com%3A6969","seeders":4,"leechers":0,"uploader":"canc232","files":1,"time":1391878928,"description":"The After S01E01 Pilot WEBRip x264 AAC [GWC] \n\n\nPlot :\nEight strangers are thrown together by mysterious forces and must help each other survive in a violent world that defies explanation. \n\n\nSCREENS : &lt;a href=&quot;\nhttp://imageshack.com/a/img853/9026/w7oy.jpg&quot; rel=&quot;nofollow&quot; target=&quot;_NEW&quot;&gt;\nhttp://imageshack.com/a/img853/9026/w7oy.jpg&lt;/a&gt; &lt;a href=&quot;\nhttp://imageshack.com/a/img200/1870/omp2.jpg&quot; rel=&quot;nofollow&quot; target=&quot;_NEW&quot;&gt;\nhttp://imageshack.com/a/img200/1870/omp2.jpg&lt;/a&gt; &lt;a href=&quot;\nhttp://imageshack.com/a/img691/3403/odvf.jpg&quot; rel=&quot;nofollow&quot; target=&quot;_NEW&quot;&gt;\nhttp://imageshack.com/a/img691/3403/odvf.jpg&lt;/a&gt;\n\n\nMEDIA INFO :\nGeneral \nFormat : MPEG-4 \nFormat profile : Base Media \nFile size : 174 MiB \nDuration : 54mn 26s \nOverall bit rate mode : Variable \nOverall bit rate : 446 Kbps \n\nVideo \nFormat : AVC \nFormat profile : &lt;a class=&quot;__cf_email__&quot; href=&quot;/cdn-cgi/l/email-protection&quot; data-cfemail=&quot;4109282629010d726f71&quot;&gt;[email&amp;#160;protected]&lt;/a&gt;&lt;script cf-hash='f9e31' type=&quot;text/javascript&quot;&gt;\n/* &lt;![CDATA[ */!function(){try{var t=&quot;currentScript&quot;in document?document.currentScript:function(){for(var t=document.getElementsByTagName(&quot;script&quot;),e=t.length;e--;)if(t[e].getAttribute(&quot;cf-hash&quot;))return t[e]}();if(t&amp;&amp;t.previousSibling){var e,r,n,i,c=t.previousSibling,a=c.getAttribute(&quot;data-cfemail&quot;);if(a){for(e=&quot;&quot;,r=parseInt(a.substr(0,2),16),n=2;a.length-n;n+=2)i=parseInt(a.substr(n,2),16)^r,e+=String.fromCharCode(i);e=document.createTextNode(e),c.parentNode.replaceChild(e,c)}}}catch(u){}}();/* ]]&gt; */&lt;/script&gt; \nFormat settings, CABAC : Yes \nFormat settings, ReFrames : 4 frames \nDuration : 54mn 26s \nBit rate : 383 Kbps \nMaximum bit rate : 2 311 Kbps \nWidth : 720 pixels \nHeight : 404 pixels \nFrame rate mode : Constant \nFrame rate : 23.976 fps \nStream size : 149 MiB (86%) \nTitle : The After S01E01 Pilot WEBRip x264 AAC [GWC] \nWriting library : x264 core\n\nAudio \nFormat : AAC \nFormat profile : HE-AAC / LC \nDuration : 54mn 26s \nBit rate mode : Variable \nChannel(s) : 2 channels \nSampling rate : 48.0 KHz / 24.0 KHz \nStream size : 23.4 MiB (13%) \nLanguage : English \n\n","torrent":{"xt":"urn:btih:214797803697577b533347c518b18070dc10306e","amp;dn":"The+After+S01E01+Pilot+WEBRip+x264+AAC+%5BGWC%5D.mp4","amp;tr":["udp%3A%2F%2Ftracker.openbittorrent.com%3A80","udp%3A%2F%2Fopen.demonii.com%3A1337","udp%3A%2F%2Ftracker.coppersurfer.tk%3A6969","udp%3A%2F%2Fexodus.desync.com%3A6969"],"infoHash":"214797803697577b533347c518b18070dc10306e","infoHashBuffer":{"type":"Buffer","data":[33,71,151,128,54,151,87,123,83,51,71,197,24,177,128,112,220,16,48,110]},"announce":[],"urlList":[]}}